<svg width="22" height="13" viewBox="0 0 22 13" fill="inherit" xmlns="http://www.w3.org/2000/svg">
<path d="M5.75 0.125C4.51625 0.125 3.5 0.844843 3.5 1.71875V3.66667H2.75C1.51625 3.66667 0.5 4.38651 0.5 5.26042V10.5729C0.5 11.838 1.96403 12.875 3.75 12.875H18.25C20.036 12.875 21.5 11.838 21.5 10.5729V1.71875C21.5 0.844843 20.4838 0.125 19.25 0.125H5.75ZM5.75 1.1875H19.25C19.6733 1.1875 20 1.41895 20 1.71875V10.5729C20 11.2636 19.225 11.8125 18.25 11.8125H3.75C2.77497 11.8125 2 11.2636 2 10.5729V5.26042C2 4.96061 2.32675 4.72917 2.75 4.72917H3.5V10.2188C3.49859 10.2891 3.51696 10.359 3.55402 10.4244C3.59108 10.4897 3.6461 10.5492 3.71588 10.5993C3.78566 10.6494 3.86882 10.6892 3.96051 10.7164C4.0522 10.7436 4.15061 10.7576 4.25 10.7576C4.34939 10.7576 4.4478 10.7436 4.53949 10.7164C4.63118 10.6892 4.71434 10.6494 4.78412 10.5993C4.8539 10.5492 4.90892 10.4897 4.94598 10.4244C4.98304 10.359 5.00141 10.2891 5 10.2188V4.28507C5.01323 4.22804 5.01323 4.16987 5 4.11283V1.71875C5 1.41895 5.32675 1.1875 5.75 1.1875ZM7.25 3.3125C7.15062 3.3115 7.05194 3.32451 6.95972 3.35076C6.86749 3.37701 6.78355 3.41598 6.71277 3.46541C6.642 3.51484 6.58579 3.57375 6.54743 3.6387C6.50907 3.70364 6.48932 3.77335 6.48932 3.84375C6.48932 3.91415 6.50907 3.98386 6.54743 4.04881C6.58579 4.11375 6.642 4.17265 6.71277 4.22208C6.78355 4.27151 6.86749 4.31049 6.95972 4.33674C7.05194 4.36299 7.15062 4.376 7.25 4.375H17.75C17.8494 4.376 17.9481 4.36299 18.0403 4.33674C18.1325 4.31049 18.2164 4.27151 18.2872 4.22208C18.358 4.17265 18.4142 4.11375 18.4526 4.04881C18.4909 3.98386 18.5107 3.91415 18.5107 3.84375C18.5107 3.77335 18.4909 3.70364 18.4526 3.6387C18.4142 3.57375 18.358 3.51484 18.2872 3.46541C18.2164 3.41598 18.1325 3.37701 18.0403 3.35076C17.9481 3.32451 17.8494 3.3115 17.75 3.3125H7.25ZM7.25 6.14583C7.15062 6.14484 7.05194 6.15784 6.95972 6.18409C6.86749 6.21035 6.78355 6.24932 6.71277 6.29875C6.642 6.34818 6.58579 6.40708 6.54743 6.47203C6.50907 6.53698 6.48932 6.60668 6.48932 6.67708C6.48932 6.74749 6.50907 6.81719 6.54743 6.88214C6.58579 6.94709 6.642 7.00599 6.71277 7.05542C6.78355 7.10485 6.86749 7.14382 6.95972 7.17007C7.05194 7.19632 7.15062 7.20933 7.25 7.20833H11.25C11.3494 7.20933 11.4481 7.19632 11.5403 7.17007C11.6325 7.14382 11.7164 7.10485 11.7872 7.05542C11.858 7.00599 11.9142 6.94709 11.9526 6.88214C11.9909 6.81719 12.0107 6.74749 12.0107 6.67708C12.0107 6.60668 11.9909 6.53698 11.9526 6.47203C11.9142 6.40708 11.858 6.34818 11.7872 6.29875C11.7164 6.24932 11.6325 6.21035 11.5403 6.18409C11.4481 6.15784 11.3494 6.14484 11.25 6.14583H7.25ZM14.25 6.14583C14.1506 6.14484 14.0519 6.15784 13.9597 6.18409C13.8675 6.21035 13.7836 6.24932 13.7128 6.29875C13.642 6.34818 13.5858 6.40708 13.5474 6.47203C13.5091 6.53698 13.4893 6.60668 13.4893 6.67708C13.4893 6.74749 13.5091 6.81719 13.5474 6.88214C13.5858 6.94709 13.642 7.00599 13.7128 7.05542C13.7836 7.10485 13.8675 7.14382 13.9597 7.17007C14.0519 7.19632 14.1506 7.20933 14.25 7.20833H17.75C17.8494 7.20933 17.9481 7.19632 18.0403 7.17007C18.1325 7.14382 18.2164 7.10485 18.2872 7.05542C18.358 7.00599 18.4142 6.94709 18.4526 6.88214C18.4909 6.81719 18.5107 6.74749 18.5107 6.67708C18.5107 6.60668 18.4909 6.53698 18.4526 6.47203C18.4142 6.40708 18.358 6.34818 18.2872 6.29875C18.2164 6.24932 18.1325 6.21035 18.0403 6.18409C17.9481 6.15784 17.8494 6.14484 17.75 6.14583H14.25ZM7.25 8.625C7.15062 8.624 7.05194 8.63701 6.95972 8.66326C6.86749 8.68951 6.78355 8.72849 6.71277 8.77792C6.642 8.82734 6.58579 8.88625 6.54743 8.95119C6.50907 9.01614 6.48932 9.08585 6.48932 9.15625C6.48932 9.22665 6.50907 9.29636 6.54743 9.36131C6.58579 9.42625 6.642 9.48516 6.71277 9.53458C6.78355 9.58401 6.86749 9.62299 6.95972 9.64924C7.05194 9.67549 7.15062 9.6885 7.25 9.6875H11.25C11.3494 9.6885 11.4481 9.67549 11.5403 9.64924C11.6325 9.62299 11.7164 9.58401 11.7872 9.53458C11.858 9.48516 11.9142 9.42625 11.9526 9.36131C11.9909 9.29636 12.0107 9.22665 12.0107 9.15625C12.0107 9.08585 11.9909 9.01614 11.9526 8.95119C11.9142 8.88625 11.858 8.82734 11.7872 8.77792C11.7164 8.72849 11.6325 8.68951 11.5403 8.66326C11.4481 8.63701 11.3494 8.624 11.25 8.625H7.25ZM14.25 8.625C14.1506 8.624 14.0519 8.63701 13.9597 8.66326C13.8675 8.68951 13.7836 8.72849 13.7128 8.77792C13.642 8.82734 13.5858 8.88625 13.5474 8.95119C13.5091 9.01614 13.4893 9.08585 13.4893 9.15625C13.4893 9.22665 13.5091 9.29636 13.5474 9.36131C13.5858 9.42625 13.642 9.48516 13.7128 9.53458C13.7836 9.58401 13.8675 9.62299 13.9597 9.64924C14.0519 9.67549 14.1506 9.6885 14.25 9.6875H17.75C17.8494 9.6885 17.9481 9.67549 18.0403 9.64924C18.1325 9.62299 18.2164 9.58401 18.2872 9.53458C18.358 9.48516 18.4142 9.42625 18.4526 9.36131C18.4909 9.29636 18.5107 9.22665 18.5107 9.15625C18.5107 9.08585 18.4909 9.01614 18.4526 8.95119C18.4142 8.88625 18.358 8.82734 18.2872 8.77792C18.2164 8.72849 18.1325 8.68951 18.0403 8.66326C17.9481 8.63701 17.8494 8.624 17.75 8.625H14.25Z" fill="inherit"/>
</svg>
